PathFileType	4	(X/Y/Z)	path1_18_0-549.trc
DataRate	CameraRate	NumFrames	NumMarkers	Units	OrigDataRate	OrigDataStartFrame	OrigNumFrames
30	30	6	22	m	30	411	549
Frame#	Time	Hip			RHip			RKnee			RAnkle			RBigToe			RSmallToe			RHeel			LHip			LKnee			LAnkle			LBigToe			LSmallToe			LHeel			Neck			Head			Nose			RShoulder			RElbow			RWrist			LShoulder			LElbow			LWrist		
		X1	Y1	Z1	X2	Y2	Z2	X3	Y3	Z3	X4	Y4	Z4	X5	Y5	Z5	X6	Y6	Z6	X7	Y7	Z7	X8	Y8	Z8	X9	Y9	Z9	X10	Y10	Z10	X11	Y11	Z11	X12	Y12	Z12	X13	Y13	Z13	X14	Y14	Z14	X15	Y15	Z15	X16	Y16	Z16	X17	Y17	Z17	X18	Y18	Z18	X19	Y19	Z19	X20	Y20	Z20	X21	Y21	Z21	X22	Y22	Z22
412	13.733333333333333	0.6698779801560273	0.8500117378752744	0.6325805782116304	0.6842659478985317	0.8200328423454144	0.5358234113173672	0.6951511721333992	0.4821413187802804	0.5473164728367913	0.7553934698321337	0.11014467602699478	0.6026320450842911	0.5698157512588704	0.03152869836436499	0.5973357844269888	0.6145089556854557	0.02530876295981408	0.5435200457132143	0.7897049164588273	0.042947453521180755	0.6129213391912014	0.660403743947829	0.8179056941489445	0.7259512963822922	0.5340303879064012	0.4998681987378697	0.7301618838914948	0.6579846835017167	0.17784182307673888	0.7254625061374681	0.5230929188081977	0.04640666910595023	0.7374790699481563	0.5442619189629703	0.062273113720015164	0.7835830376108431	0.722281407595799	0.1237137452160691	0.7168987131751171	0.6279604245154358	1.4548991632445079	0.630858006343615	0.567460163794743	1.6859685575183587	0.6140515743167254	0.4722519010883562	1.5742466816777783	0.6243786237663297	0.6723665074132513	1.3586099185535772	0.45706883650996805	0.6455797264561991	1.074655386078556	0.41077273708838136	0.5637467426255011	0.8516472240913232	0.38405824516472603	0.6586483569062989	1.35449016227771	0.8130414237223541	0.6834585851626293	1.0883859042049377	0.8569712762628069	0.6393135713647746	0.8510840313081468	0.8907830299712944
413	13.766666666666667	0.636548746732503	0.849648875332	0.6331784390729006	0.6534960302670586	0.8209492055935076	0.53433302075934	0.6784195147272666	0.4826108360182604	0.5464613830197357	0.7515772313858832	0.11022086557790431	0.6019290033924045	0.5718661113956763	0.030028875004392233	0.5971682408585687	0.6152570211302302	0.026354712528323155	0.5443721169251651	0.7890569456931706	0.04292817517582611	0.6135197019598296	0.6281589948948212	0.8184371239612493	0.7296071629078678	0.4849027882865294	0.5013842688975191	0.7349539692088095	0.550098331135937	0.15922807615750034	0.730672025605163	0.38986346997634136	0.05232489735484338	0.7448375681087123	0.4152264074529389	0.062381272744877495	0.792070932476162	0.6063380345343208	0.09171778358857073	0.7207918749687687	0.5926829330663107	1.4544452119070106	0.630554405817583	0.517514263853789	1.6870092879630583	0.6000084049439594	0.4363122055737166	1.5720969164410534	0.623939657926796	0.6319077315817779	1.3569597142980978	0.45795860052985365	0.5959688586904921	1.0755285749270365	0.41043888700651077	0.5015226677207628	0.8556928157472772	0.38425978738088556	0.6226725106860866	1.3574408526127613	0.8129079947961222	0.660746024245248	1.0904626226705112	0.8600440720761202	0.6268302916493939	0.8501411085308196	0.8942603356181857
414	13.8	0.6036731483192908	0.8483418001470336	0.6335376744122287	0.6222874141750934	0.8210593974001198	0.5324628298280581	0.6606476191401435	0.4820367705603836	0.5475208757699972	0.7479989382286181	0.11074534268002885	0.6010466409029884	0.5727343299688722	0.02952841299542536	0.5967307829762416	0.6146113934561048	0.0282614478792917	0.5464299440266192	0.7892702163902653	0.043366189774891886	0.6142190105140491	0.5969426409572818	0.8175200750045891	0.7321741942857021	0.4414644357009609	0.4984965379657403	0.7385327900664792	0.4461654676105538	0.14621672033673971	0.7336761411497544	0.27017006296104856	0.0638421062358869	0.7487486052514523	0.30224855387954347	0.06679109917815053	0.7958768297008697	0.49416755256418926	0.06980186123104055	0.7227314756693811	0.5569816810973964	1.4533290299398371	0.6306659650224253	0.46201223528083596	1.68825903215843	0.5807960815028392	0.4007867129401389	1.568410810496525	0.6246875588063621	0.5906490242412659	1.3538218644964173	0.45915463678527746	0.5479370260251266	1.0759776850306662	0.41058184582733953	0.44103858338703655	0.8590843081824391	0.38638673863758644	0.5851290318130019	1.3594646653193951	0.8129959454680338	0.636128322191611	1.0915414000082055	0.8631325619602986	0.6120304320652994	0.8491155332894272	0.8968507122437714
415	13.833333333333334	0.5704021324776071	0.8461942770655987	0.6340679271429337	0.5896619305602177	0.8200519795570788	0.5310387087345094	0.6414347588778937	0.479854122630069	0.5509604510613553	0.7449205954942008	0.11223281509675792	0.6001011669690269	0.5714179878415093	0.030215270630944938	0.5954114003841751	0.6136657362844042	0.03017248543724393	0.5488969244616981	0.7904869840564952	0.04521285070624107	0.6153308192131326	0.5653582798892424	0.8150292419377269	0.7337064134486323	0.40209249851827333	0.49239023150246464	0.7410162704248741	0.3525647277658489	0.13813743038112702	0.7334742265648599	0.1693568736686087	0.07883790296161637	0.7487367463161619	0.20913695423499468	0.07413920263020377	0.7949698567434774	0.39222794368355796	0.0578976871072874	0.7217848010024026	0.5206795267644359	1.4517503562014715	0.6316653458845356	0.40433576323540116	1.6895112282575322	0.5608064033292784	0.36569791812946817	1.5638315669324188	0.6271102453745434	0.5491483476714539	1.3500821342469278	0.4605916684215843	0.5015596108670579	1.0760050467314444	0.4114618244246557	0.38304208552961655	0.8618130685772734	0.39024258877651746	0.5457930023404884	1.3596380971966884	0.8135165553920873	0.6095700113411998	1.0912256269861895	0.8658798115590249	0.5943865093934262	0.8474602657342936	0.8983963272764748
416	13.866666666666667	0.5357861659321386	0.8433481103167347	0.6352476366960729	0.5547624331925767	0.817978392177498	0.530781406002372	0.6195210797732438	0.4758973691618971	0.5565455916750279	0.7417597699259028	0.11536885388898885	0.5990602943208216	0.5687589623963569	0.031545653389180396	0.5932176827561625	0.6139014888138228	0.031146513426143253	0.5506591226432396	0.7920691009672971	0.04968480709594407	0.6166714842831443	0.5319013196107825	0.8113258613702362	0.7349167479379028	0.3646352691903829	0.4848130491740544	0.7424759320346038	0.274145595485892	0.13299515847346116	0.7305237823412485	0.08949680072691102	0.09287313256279534	0.7452111658826659	0.13570932939114347	0.08149915185667322	0.7909152503631597	0.3065203889811447	0.05291027807619496	0.7181548899629605	0.4834565371877654	1.4497977660870887	0.6341748088423707	0.3487673117141595	1.6904001691197585	0.5462375456104238	0.3307315059199859	1.5588007151860164	0.6312942849794579	0.5076814150727093	1.3463493906500812	0.4623724659462557	0.4569490503307655	1.0755547261165557	0.4132819282681124	0.32832929346927237	0.8638164505363404	0.3954408189567124	0.5050501827300072	1.357700341864207	0.8149742315674613	0.5810950352059002	1.089549554463181	0.8681582495186567	0.5733695158292115	0.8449058543281134	0.8988522735550454
417	13.9	0.49903179308956236	0.8400966454771494	0.6374723516443835	0.5171050396333166	0.8150857707718977	0.5322428528759422	0.5930103146593786	0.47056348111976226	0.5631809791198021	0.7370913337406994	0.12103997380574469	0.5978147649820009	0.5667290195198297	0.03261235668977337	0.5904750746204894	0.6161016452566167	0.031006131197333094	0.5508961168591382	0.7926457238264831	0.05827704200619402	0.6176673038464368	0.4953972182348304	0.8070434565520648	0.7366651022574142	0.32746188426650275	0.4772114137320746	0.743159127240462	0.2131802430001791	0.12893121198338967	0.7259722368797528	0.029737293628098113	0.10101702651767255	0.7392695986318552	0.07936633528015367	0.08560633993196987	0.7858259293491955	0.24077588363889116	0.051023151907026096	0.713014190601717	0.44494950529049304	1.44742771988973	0.6386371964087563	0.30022554268264723	1.6906211374270481	0.5420913212782197	0.29549266852983674	1.5537484971939273	0.6372877453126587	0.46630421008687845	1.3429589702307314	0.4647472105447124	0.41423620706549946	1.074596632077502	0.416174922364169	0.27763449591798794	0.8650850519887655	0.401633177607847	0.4642124909773118	1.3544072848345379	0.817842068479128	0.5505003309024112	1.0869992023967332	0.8700179649352615	0.5485814891180404	0.8416905022824781	0.8984519459892755
